<?xml version="1.0" standalone="no"?>
<!DOCTYPE svg PUBLIC "-//W3C//DTD SVG 20010904//EN"
 "http://www.w3.org/TR/2001/REC-SVG-20010904/DTD/svg10.dtd">
<svg version="1.0" xmlns="http://www.w3.org/2000/svg"
 width="250.000000pt" height="250.000000pt" viewBox="0 0 250.000000 250.000000"
 preserveAspectRatio="xMidYMid meet">
<metadata>
Created by potrace 1.14, written by Peter Selinger 2001-2017
</metadata>
<g transform="translate(0.000000,250.000000) scale(0.100000,-0.100000)"
fill="#000000" stroke="none">
<path d="M1000 2325 c0 -24 -2 -25 -75 -25 -73 0 -75 -1 -75 -25 0 -23 -3 -25
-50 -25 -47 0 -50 -2 -50 -25 0 -23 -3 -25 -50 -25 -47 0 -50 -2 -50 -25 0
-20 -5 -25 -25 -25 -20 0 -25 -5 -25 -25 0 -20 -5 -25 -25 -25 -20 0 -25 -5
-25 -25 0 -20 -5 -25 -25 -25 -20 0 -25 -5 -25 -25 0 -20 -5 -25 -25 -25 -23
0 -25 -3 -25 -50 0 -47 -2 -50 -25 -50 l-25 0 0 -225 0 -225 25 0 c23 0 25 -3
25 -50 0 -47 2 -50 25 -50 l25 0 0 -175 0 -175 25 0 c20 0 25 5 25 25 0 20 5
25 25 25 23 0 25 -3 25 -50 0 -47 2 -50 25 -50 20 0 25 -5 25 -25 0 -20 5 -25
25 -25 20 0 25 5 25 25 0 20 5 25 25 25 20 0 25 -5 25 -25 0 -20 5 -25 25 -25
20 0 25 -5 25 -25 0 -20 5 -25 25 -25 20 0 25 5 25 25 0 24 2 25 75 25 73 0
75 -1 75 -25 0 -20 -5 -25 -25 -25 -20 0 -25 -5 -25 -25 0 -20 -5 -25 -25 -25
-20 0 -25 -5 -25 -25 0 -20 -5 -25 -25 -25 -20 0 -25 -5 -25 -25 0 -20 -5 -25
-25 -25 -23 0 -25 -3 -25 -50 0 -47 2 -50 25 -50 20 0 25 -5 25 -25 0 -23 3
-25 50 -25 47 0 50 -2 50 -25 0 -20 5 -25 25 -25 24 0 25 -2 25 -75 0 -73 -1
-75 -25 -75 -24 0 -25 -2 -25 -75 0 -73 -1 -75 -25 -75 -23 0 -25 -3 -25 -50
l0 -50 350 0 350 0 0 50 c0 47 -2 50 -25 50 -24 0 -25 2 -25 75 0 73 -1 75
-25 75 -24 0 -25 2 -25 75 0 73 1 75 25 75 23 0 25 3 25 50 0 47 2 50 25 50
20 0 25 -5 25 -25 0 -23 3 -25 50 -25 47 0 50 2 50 25 0 20 5 25 25 25 23 0
25 3 25 50 0 47 -2 50 -25 50 -23 0 -25 3 -25 50 0 47 -2 50 -25 50 -24 0 -25
2 -25 75 0 73 1 75 25 75 20 0 25 -5 25 -25 0 -20 5 -25 25 -25 20 0 25 5 25
25 0 20 5 25 25 25 23 0 25 3 25 50 0 47 2 50 25 50 20 0 25 -5 25 -25 0 -20
5 -25 25 -25 20 0 25 5 25 25 0 20 5 25 25 25 23 0 25 3 25 50 0 47 2 50 25
50 l25 0 0 100 0 100 25 0 25 0 0 300 0 300 -25 0 c-23 0 -25 3 -25 50 0 47
-2 50 -25 50 -23 0 -25 3 -25 50 0 47 -2 50 -25 50 -20 0 -25 5 -25 25 0 20
-5 25 -25 25 -20 0 -25 5 -25 25 0 23 -3 25 -50 25 -47 0 -50 2 -50 25 0 24
-2 25 -75 25 -73 0 -75 1 -75 25 l0 25 -300 0 -300 0 0 -25z"/>
</g>
</svg>
